<svg width="182" height="325" viewBox="0 0 182 325" fill="none" xmlns="http://www.w3.org/2000/svg">
<path d="M68.1353 156.816L30.4281 160.522C29.4502 158.565 27.9907 152.026 27.4555 146.934C24.3514 117.401 43.7184 88.5946 83.4357 84.4201C121.371 80.433 147.389 102.667 150.493 132.2C152.741 153.587 143.131 172.358 123.31 187.054L93.9482 208.931C89.432 212.495 85.7063 216.233 83.9233 221.311L160.303 213.283L163.835 246.89L38.3182 260.082C35.1339 229.785 41.1678 203.925 69.6185 183.173L94.9468 164.552C107.128 155.549 111.498 148.14 110.347 137.192C109.25 126.754 100.903 118.364 86.1368 119.916C70.6064 121.549 64.0923 133.044 65.5373 146.793C65.8852 150.102 66.769 153.613 68.1353 156.816Z" fill="white"/>
<path d="M68.1353 156.816L68.771 163.285L77.5918 162.418L74.114 154.266L68.1353 156.816ZM30.4281 160.522L24.6138 163.428L26.6132 167.428L31.0638 166.991L30.4281 160.522ZM123.31 187.054L119.439 181.833L119.433 181.838L119.427 181.842L123.31 187.054ZM93.9482 208.931L90.0647 203.719L89.9925 203.773L89.9218 203.829L93.9482 208.931ZM83.9233 221.311L77.7904 219.158L74.3877 228.849L84.6028 227.775L83.9233 221.311ZM160.303 213.283L166.767 212.604L166.088 206.139L159.623 206.819L160.303 213.283ZM163.835 246.89L164.514 253.355L170.979 252.675L170.299 246.211L163.835 246.89ZM38.3182 260.082L31.8538 260.762L32.5333 267.226L38.9977 266.547L38.3182 260.082ZM69.6185 183.173L73.4489 188.425L73.4588 188.418L73.4687 188.41L69.6185 183.173ZM94.9468 164.552L98.797 169.789L98.8035 169.784L98.81 169.779L94.9468 164.552ZM67.4995 150.347L29.7923 154.053L31.0638 166.991L68.771 163.285L67.4995 150.347ZM36.2423 157.616C36.2694 157.67 36.1254 157.356 35.8656 156.467C35.634 155.674 35.3781 154.661 35.1237 153.506C34.6122 151.183 34.1578 148.518 33.9199 146.255L20.9911 147.614C21.2884 150.442 21.8313 153.592 22.4279 156.302C22.9684 158.756 23.7166 161.633 24.6138 163.428L36.2423 157.616ZM33.9199 146.255C32.539 133.117 36.1593 120.293 44.4013 110.304C52.6122 100.353 65.747 92.8151 84.1151 90.8845L82.7562 77.9557C61.407 80.1996 44.9998 89.1522 34.3739 102.031C23.779 114.872 19.2679 131.218 20.9911 147.614L33.9199 146.255ZM84.1151 90.8845C118.923 87.226 141.345 107.345 144.029 132.88L156.958 131.521C153.434 97.9895 123.818 73.64 82.7562 77.9557L84.1151 90.8845ZM144.029 132.88C145.987 151.51 137.825 168.2 119.439 181.833L127.182 192.276C148.436 176.516 159.495 155.663 156.958 131.521L144.029 132.88ZM119.427 181.842L90.0647 203.719L97.8318 214.144L127.194 192.267L119.427 181.842ZM89.9218 203.829C85.1376 207.604 80.2006 212.293 77.7904 219.158L90.0563 223.464C91.212 220.173 93.7263 217.386 97.9746 214.034L89.9218 203.829ZM84.6028 227.775L160.982 219.748L159.623 206.819L83.2439 214.847L84.6028 227.775ZM153.838 213.963L157.37 247.57L170.299 246.211L166.767 212.604L153.838 213.963ZM163.155 240.426L37.6388 253.618L38.9977 266.547L164.514 253.355L163.155 240.426ZM44.7826 259.403C43.2511 244.832 43.9999 231.869 48.2146 220.268C52.3925 208.767 60.1492 198.125 73.4489 188.425L65.7881 177.922C50.6371 188.973 41.1515 201.637 35.9958 215.829C30.877 229.92 30.2009 245.036 31.8538 260.762L44.7826 259.403ZM73.4687 188.41L98.797 169.789L91.0965 159.315L65.7683 177.936L73.4687 188.41ZM98.81 169.779C105.203 165.055 110.173 160.308 113.297 154.814C116.542 149.107 117.506 143.115 116.812 136.513L103.883 137.872C104.34 142.217 103.694 145.404 101.996 148.389C100.178 151.587 96.8723 155.046 91.0836 159.324L98.81 169.779ZM116.812 136.513C116.102 129.758 112.995 123.37 107.392 118.953C101.763 114.516 94.2122 112.532 85.4574 113.452L86.8163 126.381C92.8281 125.749 96.8338 127.183 99.3441 129.162C101.881 131.162 103.496 134.188 103.883 137.872L116.812 136.513ZM85.4574 113.452C76.104 114.435 68.7815 118.523 64.1628 125.06C59.641 131.459 58.231 139.462 59.0729 147.472L72.0017 146.113C71.3987 140.375 72.5231 135.756 74.7798 132.562C76.9394 129.505 80.6392 127.03 86.8163 126.381L85.4574 113.452ZM59.0729 147.472C59.4865 151.407 60.5286 155.55 62.1566 159.367L74.114 154.266C73.0094 151.676 72.2839 148.798 72.0017 146.113L59.0729 147.472Z" fill="#240F01"/>
<path d="M66.0109 154.937L28.3037 158.642C27.3258 156.686 25.8663 150.147 25.3311 145.055C22.227 115.521 41.594 86.7152 81.3113 82.5407C119.246 78.5536 145.265 100.788 148.369 130.321C150.617 151.707 141.006 170.479 121.186 185.175L91.8238 207.052C87.3076 210.616 83.5819 214.353 81.7989 219.432L158.178 211.404L161.71 245.011L36.1938 258.203C33.0095 227.906 39.0434 202.046 67.4941 181.294L92.8224 162.672C105.004 153.67 109.374 146.26 108.223 135.313C107.126 124.874 98.7791 116.485 84.0124 118.037C68.482 119.669 61.9679 131.165 63.4129 144.913C63.7608 148.223 64.6446 151.734 66.0109 154.937Z" fill="white"/>
</svg>
